<?xml version="1.0" encoding="utf-8"?>
<!-- Generator: Adobe Illustrator 15.1.0, SVG Export Plug-In  -->
<!DOCTYPE svg PUBLIC "-//W3C//DTD SVG 1.1//EN" "http://www.w3.org/Graphics/SVG/1.1/DTD/svg11.dtd" [
	<!ENTITY ns_flows "http://ns.adobe.com/Flows/1.0/">
]>
<svg version="1.1"
	 xmlns="http://www.w3.org/2000/svg" xmlns:xlink="http://www.w3.org/1999/xlink" xmlns:a="http://ns.adobe.com/AdobeSVGViewerExtensions/3.0/"
	 x="0px" y="0px" width="537px" height="110px" viewBox="-4.209 -4.108 537 110"
	 overflow="visible" enable-background="new -4.209 -4.108 537 110" xml:space="preserve">
<defs>
</defs>
<path d="M511.114,77.417c-5.916,0-13.261-7.038-15.198-16.32l-2.55,0.408c0.815,3.773,1.224,8.567,1.224,12.852
	c0,2.04-0.102,3.979-0.306,5.508l2.754,0.204c0-1.529,0.306-2.448,1.122-2.448c0.815,0,6.426,2.551,13.056,2.551
	c10.2,0,17.442-6.019,17.442-15.708c0-7.345-5.508-12.24-14.79-14.688c-7.752-2.04-10.71-4.998-10.71-9.894
	c0-4.284,2.244-8.363,7.548-8.363c5.916,0,10.404,7.139,12.444,14.279l2.55-0.408c-0.816-2.958-1.225-7.446-1.225-11.526
	c0-2.039,0.103-3.977,0.307-5.608l-2.856-0.103c0,1.632-0.306,2.347-1.02,2.347c-0.816,0-4.387-1.633-9.895-1.633
	c-9.078,0-16.014,6.119-16.014,14.178c0,6.731,3.876,11.321,13.872,14.075c9.282,2.551,11.424,5.814,11.424,11.425
	C520.294,73.643,516.112,77.417,511.114,77.417 M492.653,45.898c0-8.364-5.406-17.033-17.034-17.033
	c-16.729,0-24.685,11.117-24.685,26.111c0,18.666,11.832,25.194,23.664,25.194c11.935,0,14.688-6.223,16.116-10.812l-1.938-1.02
	c-1.53,3.876-4.794,5.609-9.69,5.609c-11.22,0-18.563-6.63-18.563-19.991c0-3.265,0.102-6.937,0.203-8.263L492.653,45.898z
	 M483.575,42.022l-21.828,0.612c2.448-7.752,6.936-10.709,12.852-10.709C479.495,31.926,483.575,37.229,483.575,42.022
	 M413.093,37.534c-0.102,0.103-0.408,0.204-0.51,0.204c-0.306,0-0.612-0.306-0.612-0.714v-7.955l-0.918-0.408l-15.604,8.976v2.142
	h7.648V75.07h-6.935v3.265h22.643V75.07h-6.834V41.207c3.366-3.061,7.038-5.713,11.526-5.713c9.588,0,11.628,4.692,11.628,9.078
	V75.07h-6.936v3.265h22.644V75.07h-6.834V43.043c0-5.202-3.978-14.178-15.708-14.178C420.438,28.865,415.337,33.456,413.093,37.534
	 M369.948,31.926c11.525,0,14.79,12.239,14.79,21.827c0,10.098-3.265,23.46-14.79,23.46c-11.628,0-14.79-13.362-14.79-23.46
	C355.158,44.165,358.32,31.926,369.948,31.926 M369.948,28.865c-15.097,0-25.193,10.199-25.193,24.888
	c0,14.688,9.587,26.418,25.193,26.418c15.605,0,25.193-11.73,25.193-26.418C395.142,39.064,385.044,28.865,369.948,28.865
	 M329.251,75.07c0,19.788-1.632,24.582-7.038,24.582c-1.836,0-3.06-1.326-3.06-2.958c0-2.04,1.428-2.244,1.428-4.182
	c0-2.652-1.021-6.426-5.712-6.426c-4.182,0-6.731,2.346-6.731,7.14c0,3.876,2.347,8.874,13.77,8.874
	c6.324,0,10.506-2.244,13.872-6.528c2.855-3.569,3.569-7.956,3.569-20.502V11.729h8.059V8.058h-26.214v3.672h8.058V75.07z
	 M283.761,41.309c1.53-1.734,4.08-3.672,7.242-3.672c2.04,0,3.366,0.815,3.366,2.346c0,1.326,0.714,2.958,3.979,2.958
	c3.875,0,5.813-3.876,5.813-7.242c0-3.568-2.142-6.833-6.63-6.833c-6.324,0-10.812,5.813-12.24,7.751
	c-0.408,0.511-0.408,0.715-1.02,0.715c-0.408,0-0.511-0.511-0.511-1.021v-7.241l-0.815-0.408l-15.606,8.976v2.142h7.548V75.07
	h-6.834v3.265h22.645V75.07h-6.937V41.309z M264.688,45.898c0-8.364-5.406-17.033-17.034-17.033
	c-16.728,0-24.684,11.117-24.684,26.111c0,18.666,11.832,25.194,23.664,25.194c11.934,0,14.688-6.223,16.116-10.812l-1.938-1.02
	c-1.53,3.876-4.794,5.609-9.69,5.609c-11.22,0-18.564-6.63-18.564-19.991c0-3.265,0.102-6.937,0.204-8.263L264.688,45.898z
	 M255.61,42.022l-21.828,0.612c2.448-7.752,6.936-10.709,12.852-10.709C251.53,31.926,255.61,37.229,255.61,42.022 M195.532,35.494
	c9.588,0,11.628,4.692,11.628,9.078V75.07h-6.936v3.265h22.644V75.07h-6.834V43.043c0-5.202-3.978-14.178-15.81-14.178
	c-7.752,0-12.954,4.591-15.096,8.669c-0.102,0.103-0.408,0.204-0.612,0.204c-0.306,0-0.612-0.306-0.612-0.714V0.611L183.088,0
	l-15.606,9.077v2.04h7.548V75.07h-6.834v3.265h22.644V75.07h-6.936V41.207C187.27,38.146,190.942,35.494,195.532,35.494
	 M151.877,66.91V37.637h13.668v-6.527h-13.668v-9.792h-0.918c-4.284,5.101-9.588,10.099-15.3,14.789v1.53h7.344v31.11
	c0,7.037,4.08,11.628,11.832,11.628s12.036-5.202,13.464-10.507l-2.04-1.02c-1.632,3.468-3.978,4.59-7.956,4.59
	C153.713,73.438,151.877,71.603,151.877,66.91 M111.078,31.926c11.526,0,14.79,12.239,14.79,21.827
	c0,10.098-3.264,23.46-14.79,23.46c-11.628,0-14.79-13.362-14.79-23.46C96.288,44.165,99.45,31.926,111.078,31.926 M111.078,28.865
	c-15.096,0-25.194,10.199-25.194,24.888c0,14.688,9.588,26.418,25.194,26.418s25.193-11.73,25.193-26.418
	C136.271,39.064,126.174,28.865,111.078,28.865 M66.504,18.768l3.774,55.997h-7.752v3.57h24.581v-3.57h-6.732l-4.386-63.035h7.038
	V8.058H64.158L46.002,59.566c-0.306,0.918-0.714,1.326-1.122,1.326c-0.408,0-0.816-0.408-1.224-1.326L22.44,8.058H2.55v3.06
	c6.018,0,9.486,2.347,10.098,4.183L6.63,74.765H0v3.57h22.44v-3.57h-8.262l0.816-55.997c0-0.204,0.306-0.612,0.51-0.612
	s0.51,0.408,0.51,0.612l25.194,59.567h2.754l21.522-59.567c0-0.204,0.306-0.612,0.51-0.612S66.504,18.563,66.504,18.768"/>
</svg>
